<?xml version="1.0" ?><svg height="256px" id="Layer_1" style="enable-background:new -511 273 256 256;" version="1.1" viewBox="-511 273 256 256" width="256px" xml:space="preserve" xmlns="http://www.w3.org/2000/svg" xmlns:xlink="http://www.w3.org/1999/xlink"><style type="text/css">
	.st0{fill:none;stroke:#000000;stroke-width:4;stroke-linecap:round;stroke-linejoin:round;stroke-miterlimit:10;}
</style><path class="st0" d="M-273.233,393.974c-4.717-65.11-62.479-113.147-123.294-106.37c-59.378,6.617-101.849,62.548-97.197,121.217  c4.716,59.478,56.873,107.915,116.722,104.495c93.51-5.899,105.67-96.487,104.359-100.389"/><path class="st0" d="M-399.152,464.322c-17.415-10.292-41.697-34.599-49.661-54.112c-4.034-9.884-5.897-24.298-3.509-34.703  c2.388-10.404,9.287-20.018,19.084-24.261c8.368-3.625,18.085-4.23,26.691-1.212c10.853,3.541,19.925,15.596,23.228,15.35  c3.304-0.246,16.847-17.767,35.105-17.299c13.558,0.464,26.792,9.656,32.804,21.816c7.831,15.838,2.975,36.388-6.092,51.552  c-13.57,22.696-36.768,39.432-60.8,50.467"/></svg>